<svg xmlns="http://www.w3.org/2000/svg" viewBox="0 0 64 64" width="64" height="64">
  <rect width="64" height="64" rx="8" fill="#00473e"/>
  <defs>
    <linearGradient id="topF" x1="0%" y1="0%" x2="100%" y2="100%">
      <stop offset="0%" stop-color="#ffc860"/>
      <stop offset="100%" stop-color="#faae2b"/>
    </linearGradient>
    <linearGradient id="leftF" x1="0%" y1="0%" x2="0%" y2="100%">
      <stop offset="0%" stop-color="#faae2b"/>
      <stop offset="100%" stop-color="#e09a1e"/>
    </linearGradient>
    <linearGradient id="rightF" x1="100%" y1="0%" x2="0%" y2="100%">
      <stop offset="0%" stop-color="#f0a828"/>
      <stop offset="100%" stop-color="#cc8a14"/>
    </linearGradient>
  </defs>
  <polygon points="32,8 56,20 32,32 8,20" fill="url(#topF)" stroke="#faae2b" stroke-width="1.2" stroke-linejoin="round"/>
  <polygon points="8,20 32,32 32,54 8,42" fill="url(#leftF)" stroke="#faae2b" stroke-width="1.2" stroke-linejoin="round"/>
  <polygon points="56,20 32,32 32,54 56,42" fill="url(#rightF)" stroke="#faae2b" stroke-width="1.2" stroke-linejoin="round"/>
  <line x1="32" y1="8" x2="32" y2="32" stroke="#00473e" stroke-width="1.5"/>
  <line x1="8" y1="20" x2="32" y2="32" stroke="#00473e" stroke-width="1"/>
  <line x1="56" y1="20" x2="32" y2="32" stroke="#00473e" stroke-width="1"/>
  <line x1="32" y1="32" x2="32" y2="54" stroke="#00473e" stroke-width="1"/>
  <polygon points="32,18 44,24 32,30 20,24" fill="none" stroke="#00473e" stroke-width="1" stroke-linejoin="round" opacity="0.5"/>
  <line x1="20" y1="24" x2="20" y2="36" stroke="#00473e" stroke-width="0.8" opacity="0.4"/>
  <line x1="44" y1="24" x2="44" y2="36" stroke="#00473e" stroke-width="0.8" opacity="0.4"/>
  <line x1="20" y1="36" x2="32" y2="42" stroke="#00473e" stroke-width="0.8" opacity="0.4"/>
  <line x1="44" y1="36" x2="32" y2="42" stroke="#00473e" stroke-width="0.8" opacity="0.4"/>
</svg>
